{
	"asset":{
		"generator":"Khronos glTF Blender I/O v4.1.62",
		"version":"2.0"
	},
	"extensionsUsed":[
		"KHR_materials_specular",
		"KHR_materials_ior"
	],
	"scene":0,
	"scenes":[
		{
			"name":"Scene",
			"nodes":[
				4
			]
		}
	],
	"nodes":[
		{
			"mesh":0,
			"name":"Treasure_Chest_Top_Model",
			"rotation":[
				-1.009255878869908e-08,
				-1.1920928955078125e-07,
				2.0999534949210207e-16,
				1
			],
			"scale":[
				3.290799856185913,
				3.290799617767334,
				3.2578623294830322
			],
			"translation":[
				-2.89653701024406e-09,
				0.005586862564086914,
				0.012148956768214703
			]
		},
		{
			"children":[
				0
			],
			"name":"rid",
			"rotation":[
				-0.3081393539905548,
				1.134087028731301e-07,
				-3.673307347185073e-08,
				0.9513412714004517
			],
			"scale":[
				0.9999999403953552,
				0.9999998807907104,
				0.9999999403953552
			],
			"translation":[
				0,
				0.9999999403953552,
				0
			]
		},
		{
			"children":[
				1
			],
			"name":"Box",
			"scale":[
				0.9999999403953552,
				0.9999999403953552,
				0.9999999403953552
			]
		},
		{
			"children":[
				2
			],
			"name":"Armature",
			"rotation":[
				0.3081393539905548,
				0,
				0,
				0.9513412714004517
			],
			"scale":[
				0.30387750267982483,
				0.3038775324821472,
				0.3038775324821472
			]
		},
		{
			"children":[
				3
			],
			"mesh":1,
			"name":"Treasure_Chest_Bottom_Model"
		}
	],
	"animations":[
		{
			"channels":[
				{
					"sampler":0,
					"target":{
						"node":2,
						"path":"translation"
					}
				},
				{
					"sampler":1,
					"target":{
						"node":2,
						"path":"rotation"
					}
				},
				{
					"sampler":2,
					"target":{
						"node":2,
						"path":"scale"
					}
				},
				{
					"sampler":3,
					"target":{
						"node":1,
						"path":"translation"
					}
				},
				{
					"sampler":4,
					"target":{
						"node":1,
						"path":"rotation"
					}
				},
				{
					"sampler":5,
					"target":{
						"node":1,
						"path":"scale"
					}
				}
			],
			"name":"open",
			"samplers":[
				{
					"input":8,
					"interpolation":"STEP",
					"output":9
				},
				{
					"input":8,
					"interpolation":"STEP",
					"output":10
				},
				{
					"input":8,
					"interpolation":"STEP",
					"output":11
				},
				{
					"input":8,
					"interpolation":"STEP",
					"output":12
				},
				{
					"input":13,
					"interpolation":"LINEAR",
					"output":14
				},
				{
					"input":8,
					"interpolation":"LINEAR",
					"output":15
				}
			]
		}
	],
	"materials":[
		{
			"doubleSided":true,
			"extensions":{
				"KHR_materials_specular":{
					"specularFactor":0
				},
				"KHR_materials_ior":{
					"ior":1.4500000476837158
				}
			},
			"name":"Material",
			"pbrMetallicRoughness":{
				"baseColorTexture":{
					"index":0
				},
				"metallicFactor":0,
				"roughnessFactor":0.5
			}
		}
	],
	"meshes":[
		{
			"name":"Cylinder.166",
			"primitives":[
				{
					"attributes":{
						"POSITION":0,
						"NORMAL":1,
						"TEXCOORD_0":2
					},
					"indices":3,
					"material":0
				}
			]
		},
		{
			"name":"Cube.130",
			"primitives":[
				{
					"attributes":{
						"POSITION":4,
						"NORMAL":5,
						"TEXCOORD_0":6
					},
					"indices":7,
					"material":0
				}
			]
		}
	],
	"textures":[
		{
			"sampler":0,
			"source":0
		}
	],
	"images":[
		{
			"mimeType":"image/png",
			"name":"Treasure_Chest_Basecolor",
			"uri":"Treasure_Chest_Basecolor.png"
		}
	],
	"skins":[
		{
			"inverseBindMatrices":16,
			"joints":[
				2,
				1
			],
			"name":"Armature"
		}
	],
	"accessors":[
		{
			"bufferView":0,
			"componentType":5126,
			"count":1068,
			"max":[
				0.327440470457077,
				0.20239363610744476,
				0.014636717736721039
			],
			"min":[
				-0.3274376690387726,
				-0.0758468359708786,
				-0.3647708594799042
			],
			"type":"VEC3"
		},
		{
			"bufferView":1,
			"componentType":5126,
			"count":1068,
			"type":"VEC3"
		},
		{
			"bufferView":2,
			"componentType":5126,
			"count":1068,
			"type":"VEC2"
		},
		{
			"bufferView":3,
			"componentType":5123,
			"count":2700,
			"type":"SCALAR"
		},
		{
			"bufferView":4,
			"componentType":5126,
			"count":1057,
			"max":[
				0.3285336196422577,
				0.2542392611503601,
				0.17683449387550354
			],
			"min":[
				-0.3285336196422577,
				-0.0004991888999938965,
				-0.17683449387550354
			],
			"type":"VEC3"
		},
		{
			"bufferView":5,
			"componentType":5126,
			"count":1057,
			"type":"VEC3"
		},
		{
			"bufferView":6,
			"componentType":5126,
			"count":1057,
			"type":"VEC2"
		},
		{
			"bufferView":7,
			"componentType":5123,
			"count":2478,
			"type":"SCALAR"
		},
		{
			"bufferView":8,
			"componentType":5126,
			"count":2,
			"max":[
				2.5
			],
			"min":[
				0.041666666666666664
			],
			"type":"SCALAR"
		},
		{
			"bufferView":9,
			"componentType":5126,
			"count":2,
			"type":"VEC3"
		},
		{
			"bufferView":10,
			"componentType":5126,
			"count":2,
			"type":"VEC4"
		},
		{
			"bufferView":11,
			"componentType":5126,
			"count":2,
			"type":"VEC3"
		},
		{
			"bufferView":12,
			"componentType":5126,
			"count":2,
			"type":"VEC3"
		},
		{
			"bufferView":13,
			"componentType":5126,
			"count":60,
			"max":[
				2.5
			],
			"min":[
				0.041666666666666664
			],
			"type":"SCALAR"
		},
		{
			"bufferView":14,
			"componentType":5126,
			"count":60,
			"type":"VEC4"
		},
		{
			"bufferView":15,
			"componentType":5126,
			"count":2,
			"type":"VEC3"
		},
		{
			"bufferView":16,
			"componentType":5126,
			"count":2,
			"type":"MAT4"
		}
	],
	"bufferViews":[
		{
			"buffer":0,
			"byteLength":12816,
			"byteOffset":0,
			"target":34962
		},
		{
			"buffer":0,
			"byteLength":12816,
			"byteOffset":12816,
			"target":34962
		},
		{
			"buffer":0,
			"byteLength":8544,
			"byteOffset":25632,
			"target":34962
		},
		{
			"buffer":0,
			"byteLength":5400,
			"byteOffset":34176,
			"target":34963
		},
		{
			"buffer":0,
			"byteLength":12684,
			"byteOffset":39576,
			"target":34962
		},
		{
			"buffer":0,
			"byteLength":12684,
			"byteOffset":52260,
			"target":34962
		},
		{
			"buffer":0,
			"byteLength":8456,
			"byteOffset":64944,
			"target":34962
		},
		{
			"buffer":0,
			"byteLength":4956,
			"byteOffset":73400,
			"target":34963
		},
		{
			"buffer":0,
			"byteLength":8,
			"byteOffset":78356
		},
		{
			"buffer":0,
			"byteLength":24,
			"byteOffset":78364
		},
		{
			"buffer":0,
			"byteLength":32,
			"byteOffset":78388
		},
		{
			"buffer":0,
			"byteLength":24,
			"byteOffset":78420
		},
		{
			"buffer":0,
			"byteLength":24,
			"byteOffset":78444
		},
		{
			"buffer":0,
			"byteLength":240,
			"byteOffset":78468
		},
		{
			"buffer":0,
			"byteLength":960,
			"byteOffset":78708
		},
		{
			"buffer":0,
			"byteLength":24,
			"byteOffset":79668
		},
		{
			"buffer":0,
			"byteLength":128,
			"byteOffset":79692
		}
	],
	"samplers":[
		{
			"magFilter":9729,
			"minFilter":9987
		}
	],
	"buffers":[
		{
			"byteLength":79820,
			"uri":"Treasure_Box.bin"
		}
	]
}
